<svg width="187" height="62" viewBox="0 0 187 62" fill="none" xmlns="http://www.w3.org/2000/svg">
<g clip-path="url(#clip0_67_6687)">
<g clip-path="url(#clip1_67_6687)">
<path d="M22.932 55.2935V17.3315L12.868 23.5475V10.8935L25.004 2.38345H38.102V55.2935H22.932ZM71.2465 44.4155C74.4531 44.4155 76.7718 43.2315 78.2025 40.8635C79.6331 38.4955 80.3485 34.8201 80.3485 29.8375V27.6915C80.3485 22.8075 79.6085 19.1568 78.1285 16.7395C76.6485 14.3221 74.3051 13.1135 71.0985 13.1135C64.9318 13.1135 61.8485 17.9728 61.8485 27.6915V29.9115C61.8485 34.8448 62.5885 38.4955 64.0685 40.8635C65.5978 43.2315 67.9905 44.4155 71.2465 44.4155ZM70.8025 56.1815C63.3531 56.1815 57.4578 53.8875 53.1165 49.2995C48.8245 44.6621 46.6785 38.2241 46.6785 29.9855V27.7655C46.6785 19.6255 48.9478 13.2368 53.4865 8.59945C58.0251 3.96212 63.8958 1.64346 71.0985 1.64346C78.3505 1.64346 84.2211 3.88812 88.7105 8.37746C93.2491 12.8175 95.5185 19.1815 95.5185 27.4695V29.5415C95.5185 37.8788 93.2985 44.4155 88.8585 49.1515C84.4185 53.8381 78.3998 56.1815 70.8025 56.1815Z" fill="white"/>
</g>
<g clip-path="url(#clip2_67_6687)">
<g clip-path="url(#clip3_67_6687)">
<path d="M114.26 24.4935V21.9935C112.58 21.8735 111.293 21.4001 110.4 20.5735C109.52 19.7335 109.047 18.6335 108.98 17.2735H112.68C112.8 18.3268 113.327 18.9535 114.26 19.1535V16.2335C112.5 15.9801 111.233 15.5068 110.46 14.8135C109.687 14.1068 109.3 13.0668 109.3 11.6935C109.3 10.4801 109.747 9.47346 110.64 8.67346C111.533 7.87346 112.74 7.42012 114.26 7.31346V5.53346H115.82V7.33346C118.833 7.58679 120.453 9.02679 120.68 11.6535H117.06C116.927 10.8401 116.513 10.3401 115.82 10.1535V12.9135C117.487 13.1535 118.747 13.6001 119.6 14.2535C120.453 14.9068 120.88 15.9201 120.88 17.2935C120.88 18.5868 120.453 19.6668 119.6 20.5335C118.747 21.4001 117.487 21.8868 115.82 21.9935V24.4935H114.26ZM117.16 17.7335C117.16 17.3868 117.067 17.1268 116.88 16.9535C116.693 16.7668 116.34 16.6135 115.82 16.4935V19.1535C116.713 18.9668 117.16 18.4935 117.16 17.7335ZM112.9 11.3935C112.9 11.7535 112.993 12.0335 113.18 12.2335C113.38 12.4201 113.74 12.5668 114.26 12.6735V10.1135C113.353 10.2735 112.9 10.7001 112.9 11.3935Z" fill="white"/>
</g>
<g clip-path="url(#clip4_67_6687)">
<path d="M109.94 45.7935V34.3535H113.188C114.372 34.3535 115.332 34.6308 116.068 35.1855C116.815 35.7295 117.188 36.5668 117.188 37.6975V37.7615C117.188 38.9135 116.815 39.7668 116.068 40.3215C115.332 40.8655 114.372 41.1375 113.188 41.1375H111.332V45.7935H109.94ZM111.332 40.0335H113.284C114.095 40.0335 114.713 39.8415 115.14 39.4575C115.577 39.0628 115.796 38.4975 115.796 37.7615V37.6975C115.796 36.2148 114.959 35.4735 113.284 35.4735H111.332V40.0335ZM122.431 45.9375C121.236 45.9375 120.26 45.5535 119.503 44.7855C118.756 44.0068 118.383 42.9775 118.383 41.6975V41.5695C118.383 40.3108 118.745 39.2815 119.471 38.4815C120.207 37.6815 121.151 37.2815 122.303 37.2815C123.369 37.2815 124.26 37.6281 124.975 38.3215C125.7 39.0041 126.063 40.0441 126.063 41.4415V41.8735H119.759C119.791 42.8335 120.031 43.5695 120.479 44.0815C120.937 44.5828 121.593 44.8335 122.447 44.8335C123.759 44.8335 124.5 44.3481 124.671 43.3775H125.999C125.86 44.1988 125.471 44.8335 124.831 45.2815C124.191 45.7188 123.391 45.9375 122.431 45.9375ZM119.807 40.8015H124.703C124.585 39.1908 123.785 38.3855 122.303 38.3855C121.631 38.3855 121.076 38.6041 120.639 39.0415C120.201 39.4681 119.924 40.0548 119.807 40.8015ZM128.2 45.7935V37.4255H129.528V38.9295C129.816 38.4068 130.168 38.0068 130.584 37.7295C131.011 37.4521 131.576 37.3028 132.28 37.2815V38.5295C131.363 38.5721 130.675 38.7855 130.216 39.1695C129.758 39.5535 129.528 40.2308 129.528 41.2015V45.7935H128.2ZM138.746 45.7935V34.3535H140.682L144.218 43.2655L147.642 34.3535H149.562V45.7935H148.17V36.1615L144.378 45.7935H143.946L140.026 36.1615V45.7935H138.746ZM155.941 44.8335C156.773 44.8335 157.435 44.5455 157.925 43.9695C158.427 43.3935 158.677 42.6308 158.677 41.6815V41.5695C158.677 40.5988 158.427 39.8255 157.925 39.2495C157.435 38.6735 156.773 38.3855 155.941 38.3855C155.099 38.3855 154.432 38.6735 153.941 39.2495C153.451 39.8255 153.205 40.5935 153.205 41.5535V41.6815C153.205 42.6415 153.451 43.4095 153.941 43.9855C154.432 44.5508 155.099 44.8335 155.941 44.8335ZM155.925 45.9375C154.741 45.9375 153.76 45.5375 152.981 44.7375C152.213 43.9268 151.829 42.9081 151.829 41.6815V41.5535C151.829 40.3055 152.213 39.2815 152.981 38.4815C153.76 37.6815 154.747 37.2815 155.941 37.2815C157.136 37.2815 158.117 37.6815 158.885 38.4815C159.664 39.2708 160.053 40.2895 160.053 41.5375V41.6655C160.053 42.9241 159.664 43.9535 158.885 44.7535C158.107 45.5428 157.12 45.9375 155.925 45.9375ZM162.21 45.7935V37.4255H163.538V38.7535C163.74 38.3268 164.076 37.9748 164.546 37.6975C165.015 37.4201 165.575 37.2815 166.226 37.2815C167.143 37.2815 167.863 37.5535 168.386 38.0975C168.908 38.6415 169.17 39.4948 169.17 40.6575V45.7935H167.842V40.5615C167.842 39.8255 167.682 39.2868 167.362 38.9455C167.042 38.6041 166.546 38.4335 165.874 38.4335C165.223 38.4335 164.668 38.6361 164.21 39.0415C163.762 39.4468 163.538 40.0068 163.538 40.7215V45.7935H162.21ZM174.416 45.9055C173.68 45.9055 173.12 45.7081 172.736 45.3135C172.352 44.9188 172.16 44.3801 172.16 43.6975V38.5455H170.96V37.4255H172.16V35.5215H173.488V37.4255H175.44V38.5455H173.488V43.5695C173.488 44.3801 173.835 44.7855 174.528 44.7855C174.912 44.7855 175.253 44.7268 175.552 44.6095V45.7295C175.221 45.8468 174.843 45.9055 174.416 45.9055ZM177.66 45.7935V33.4255H178.988V38.7535C179.19 38.3268 179.526 37.9748 179.996 37.6975C180.465 37.4201 181.025 37.2815 181.676 37.2815C182.593 37.2815 183.313 37.5535 183.836 38.0975C184.358 38.6415 184.62 39.4948 184.62 40.6575V45.7935H183.292V40.5615C183.292 39.8255 183.132 39.2868 182.812 38.9455C182.492 38.6041 181.996 38.4335 181.324 38.4335C180.673 38.4335 180.118 38.6361 179.66 39.0415C179.212 39.4468 178.988 40.0068 178.988 40.7215V45.7935H177.66Z" fill="white"/>
</g>
</g>
</g>
<defs>
<clipPath id="clip0_67_6687">
<rect width="186" height="61" fill="white" transform="translate(0.5 0.793457)"/>
</clipPath>
<clipPath id="clip1_67_6687">
<rect width="108" height="104" fill="white" transform="translate(0.5 -20.7065)"/>
</clipPath>
<clipPath id="clip2_67_6687">
<rect width="78" height="51" fill="white" transform="translate(108.5 0.793457)"/>
</clipPath>
<clipPath id="clip3_67_6687">
<rect width="13" height="28" fill="white" transform="translate(108.5 0.793457)"/>
</clipPath>
<clipPath id="clip4_67_6687">
<rect width="78" height="23" fill="white" transform="translate(108.5 28.7935)"/>
</clipPath>
</defs>
</svg>
