<svg width="199" height="62" viewBox="0 0 199 62" fill="none" xmlns="http://www.w3.org/2000/svg">
<g clip-path="url(#clip0_67_6709)">
<g clip-path="url(#clip1_67_6709)">
<path d="M34.328 56.1075C28.112 56.1075 23.2033 54.7508 19.602 52.0375C16.05 49.3241 14.0027 45.4268 13.46 40.3455H27.372C27.964 43.3548 30.036 44.8595 33.588 44.8595C36.6467 44.8595 38.8913 43.7248 40.322 41.4555C41.802 39.1861 42.5913 35.7328 42.69 31.0955C40.0753 35.2395 36.0793 37.3115 30.702 37.3115C25.4233 37.3115 21.1067 35.8315 17.752 32.8715C14.4467 29.8621 12.794 25.6441 12.794 20.2175C12.794 14.5935 14.7427 10.0795 18.64 6.67546C22.5867 3.27146 27.89 1.56946 34.55 1.56946C42.1967 1.56946 47.9687 3.91279 51.866 8.59945C55.7633 13.2368 57.712 19.5268 57.712 27.4695V29.2455C57.712 37.8295 55.6893 44.4648 51.644 49.1515C47.648 53.7888 41.876 56.1075 34.328 56.1075ZM29.148 25.4715C30.4307 26.8528 32.1573 27.5435 34.328 27.5435C36.4987 27.5435 38.25 26.8528 39.582 25.4715C40.914 24.0408 41.58 22.2648 41.58 20.1435C41.58 17.7755 40.914 15.8761 39.582 14.4455C38.2993 12.9655 36.548 12.2255 34.328 12.2255C32.256 12.2255 30.554 12.9655 29.222 14.4455C27.9393 15.8761 27.298 17.7261 27.298 19.9955C27.298 22.2155 27.9147 24.0408 29.148 25.4715ZM83.7409 56.1075C77.5249 56.1075 72.6162 54.7508 69.0149 52.0375C65.4629 49.3241 63.4156 45.4268 62.8729 40.3455H76.7849C77.3769 43.3548 79.4489 44.8595 83.0009 44.8595C86.0596 44.8595 88.3042 43.7248 89.7349 41.4555C91.2149 39.1861 92.0042 35.7328 92.1029 31.0955C89.4882 35.2395 85.4922 37.3115 80.1149 37.3115C74.8362 37.3115 70.5196 35.8315 67.1649 32.8715C63.8596 29.8621 62.2069 25.6441 62.2069 20.2175C62.2069 14.5935 64.1556 10.0795 68.0529 6.67546C71.9996 3.27146 77.3029 1.56946 83.9629 1.56946C91.6096 1.56946 97.3816 3.91279 101.279 8.59945C105.176 13.2368 107.125 19.5268 107.125 27.4695V29.2455C107.125 37.8295 105.102 44.4648 101.057 49.1515C97.0609 53.7888 91.2889 56.1075 83.7409 56.1075ZM78.5609 25.4715C79.8436 26.8528 81.5702 27.5435 83.7409 27.5435C85.9116 27.5435 87.6629 26.8528 88.9949 25.4715C90.3269 24.0408 90.9929 22.2648 90.9929 20.1435C90.9929 17.7755 90.3269 15.8761 88.9949 14.4455C87.7122 12.9655 85.9609 12.2255 83.7409 12.2255C81.6689 12.2255 79.9669 12.9655 78.6349 14.4455C77.3522 15.8761 76.7109 17.7261 76.7109 19.9955C76.7109 22.2155 77.3276 24.0408 78.5609 25.4715Z" fill="#252B42"/>
</g>
<g clip-path="url(#clip2_67_6709)">
<g clip-path="url(#clip3_67_6709)">
<path d="M126.26 24.4935V21.9935C124.58 21.8735 123.293 21.4001 122.4 20.5735C121.52 19.7335 121.047 18.6335 120.98 17.2735H124.68C124.8 18.3268 125.327 18.9535 126.26 19.1535V16.2335C124.5 15.9801 123.233 15.5068 122.46 14.8135C121.687 14.1068 121.3 13.0668 121.3 11.6935C121.3 10.4801 121.747 9.47346 122.64 8.67346C123.533 7.87346 124.74 7.42012 126.26 7.31346V5.53346H127.82V7.33346C130.833 7.58679 132.453 9.02679 132.68 11.6535H129.06C128.927 10.8401 128.513 10.3401 127.82 10.1535V12.9135C129.487 13.1535 130.747 13.6001 131.6 14.2535C132.453 14.9068 132.88 15.9201 132.88 17.2935C132.88 18.5868 132.453 19.6668 131.6 20.5335C130.747 21.4001 129.487 21.8868 127.82 21.9935V24.4935H126.26ZM129.16 17.7335C129.16 17.3868 129.067 17.1268 128.88 16.9535C128.693 16.7668 128.34 16.6135 127.82 16.4935V19.1535C128.713 18.9668 129.16 18.4935 129.16 17.7335ZM124.9 11.3935C124.9 11.7535 124.993 12.0335 125.18 12.2335C125.38 12.4201 125.74 12.5668 126.26 12.6735V10.1135C125.353 10.2735 124.9 10.7001 124.9 11.3935Z" fill="#252B42"/>
</g>
<g clip-path="url(#clip4_67_6709)">
<path d="M121.94 45.7935V34.3535H125.188C126.372 34.3535 127.332 34.6308 128.068 35.1855C128.815 35.7295 129.188 36.5668 129.188 37.6975V37.7615C129.188 38.9135 128.815 39.7668 128.068 40.3215C127.332 40.8655 126.372 41.1375 125.188 41.1375H123.332V45.7935H121.94ZM123.332 40.0335H125.284C126.095 40.0335 126.713 39.8415 127.14 39.4575C127.577 39.0628 127.796 38.4975 127.796 37.7615V37.6975C127.796 36.2148 126.959 35.4735 125.284 35.4735H123.332V40.0335ZM134.431 45.9375C133.236 45.9375 132.26 45.5535 131.503 44.7855C130.756 44.0068 130.383 42.9775 130.383 41.6975V41.5695C130.383 40.3108 130.745 39.2815 131.471 38.4815C132.207 37.6815 133.151 37.2815 134.303 37.2815C135.369 37.2815 136.26 37.6281 136.975 38.3215C137.7 39.0041 138.063 40.0441 138.063 41.4415V41.8735H131.759C131.791 42.8335 132.031 43.5695 132.479 44.0815C132.937 44.5828 133.593 44.8335 134.447 44.8335C135.759 44.8335 136.5 44.3481 136.671 43.3775H137.999C137.86 44.1988 137.471 44.8335 136.831 45.2815C136.191 45.7188 135.391 45.9375 134.431 45.9375ZM131.807 40.8015H136.703C136.585 39.1908 135.785 38.3855 134.303 38.3855C133.631 38.3855 133.076 38.6041 132.639 39.0415C132.201 39.4681 131.924 40.0548 131.807 40.8015ZM140.2 45.7935V37.4255H141.528V38.9295C141.816 38.4068 142.168 38.0068 142.584 37.7295C143.011 37.4521 143.576 37.3028 144.28 37.2815V38.5295C143.363 38.5721 142.675 38.7855 142.216 39.1695C141.758 39.5535 141.528 40.2308 141.528 41.2015V45.7935H140.2ZM150.746 45.7935V34.3535H152.682L156.218 43.2655L159.642 34.3535H161.562V45.7935H160.17V36.1615L156.378 45.7935H155.946L152.026 36.1615V45.7935H150.746ZM167.941 44.8335C168.773 44.8335 169.435 44.5455 169.925 43.9695C170.427 43.3935 170.677 42.6308 170.677 41.6815V41.5695C170.677 40.5988 170.427 39.8255 169.925 39.2495C169.435 38.6735 168.773 38.3855 167.941 38.3855C167.099 38.3855 166.432 38.6735 165.941 39.2495C165.451 39.8255 165.205 40.5935 165.205 41.5535V41.6815C165.205 42.6415 165.451 43.4095 165.941 43.9855C166.432 44.5508 167.099 44.8335 167.941 44.8335ZM167.925 45.9375C166.741 45.9375 165.76 45.5375 164.981 44.7375C164.213 43.9268 163.829 42.9081 163.829 41.6815V41.5535C163.829 40.3055 164.213 39.2815 164.981 38.4815C165.76 37.6815 166.747 37.2815 167.941 37.2815C169.136 37.2815 170.117 37.6815 170.885 38.4815C171.664 39.2708 172.053 40.2895 172.053 41.5375V41.6655C172.053 42.9241 171.664 43.9535 170.885 44.7535C170.107 45.5428 169.12 45.9375 167.925 45.9375ZM174.21 45.7935V37.4255H175.538V38.7535C175.74 38.3268 176.076 37.9748 176.546 37.6975C177.015 37.4201 177.575 37.2815 178.226 37.2815C179.143 37.2815 179.863 37.5535 180.386 38.0975C180.908 38.6415 181.17 39.4948 181.17 40.6575V45.7935H179.842V40.5615C179.842 39.8255 179.682 39.2868 179.362 38.9455C179.042 38.6041 178.546 38.4335 177.874 38.4335C177.223 38.4335 176.668 38.6361 176.21 39.0415C175.762 39.4468 175.538 40.0068 175.538 40.7215V45.7935H174.21ZM186.416 45.9055C185.68 45.9055 185.12 45.7081 184.736 45.3135C184.352 44.9188 184.16 44.3801 184.16 43.6975V38.5455H182.96V37.4255H184.16V35.5215H185.488V37.4255H187.44V38.5455H185.488V43.5695C185.488 44.3801 185.835 44.7855 186.528 44.7855C186.912 44.7855 187.253 44.7268 187.552 44.6095V45.7295C187.221 45.8468 186.843 45.9055 186.416 45.9055ZM189.66 45.7935V33.4255H190.988V38.7535C191.19 38.3268 191.526 37.9748 191.996 37.6975C192.465 37.4201 193.025 37.2815 193.676 37.2815C194.593 37.2815 195.313 37.5535 195.836 38.0975C196.358 38.6415 196.62 39.4948 196.62 40.6575V45.7935H195.292V40.5615C195.292 39.8255 195.132 39.2868 194.812 38.9455C194.492 38.6041 193.996 38.4335 193.324 38.4335C192.673 38.4335 192.118 38.6361 191.66 39.0415C191.212 39.4468 190.988 40.0068 190.988 40.7215V45.7935H189.66Z" fill="#374754"/>
</g>
</g>
</g>
<defs>
<clipPath id="clip0_67_6709">
<rect width="198" height="61" fill="white" transform="translate(0.5 0.793457)"/>
</clipPath>
<clipPath id="clip1_67_6709">
<rect width="120" height="104" fill="white" transform="translate(0.5 -20.7065)"/>
</clipPath>
<clipPath id="clip2_67_6709">
<rect width="78" height="51" fill="white" transform="translate(120.5 0.793457)"/>
</clipPath>
<clipPath id="clip3_67_6709">
<rect width="13" height="28" fill="white" transform="translate(120.5 0.793457)"/>
</clipPath>
<clipPath id="clip4_67_6709">
<rect width="78" height="23" fill="white" transform="translate(120.5 28.7935)"/>
</clipPath>
</defs>
</svg>
