<svg width="153" height="62" viewBox="0 0 153 62" fill="none" xmlns="http://www.w3.org/2000/svg">
<g clip-path="url(#clip0_67_6665)">
<g clip-path="url(#clip1_67_6665)">
<path d="M37.232 44.4155C40.4387 44.4155 42.7573 43.2315 44.188 40.8635C45.6187 38.4955 46.334 34.8201 46.334 29.8375V27.6915C46.334 22.8075 45.594 19.1568 44.114 16.7395C42.634 14.3221 40.2907 13.1135 37.084 13.1135C30.9173 13.1135 27.834 17.9728 27.834 27.6915V29.9115C27.834 34.8448 28.574 38.4955 30.054 40.8635C31.5833 43.2315 33.976 44.4155 37.232 44.4155ZM36.788 56.1815C29.3387 56.1815 23.4433 53.8875 19.102 49.2995C14.81 44.6621 12.664 38.2241 12.664 29.9855V27.7655C12.664 19.6255 14.9333 13.2368 19.472 8.59945C24.0107 3.96212 29.8813 1.64346 37.084 1.64346C44.336 1.64346 50.2067 3.88812 54.696 8.37746C59.2347 12.8175 61.504 19.1815 61.504 27.4695V29.5415C61.504 37.8788 59.284 44.4155 54.844 49.1515C50.404 53.8381 44.3853 56.1815 36.788 56.1815Z" fill="#252B42"/>
</g>
<g clip-path="url(#clip2_67_6665)">
<g clip-path="url(#clip3_67_6665)">
<path d="M80.76 24.4935V21.9935C79.08 21.8735 77.7933 21.4001 76.9 20.5735C76.02 19.7335 75.5467 18.6335 75.48 17.2735H79.18C79.3 18.3268 79.8267 18.9535 80.76 19.1535V16.2335C79 15.9801 77.7333 15.5068 76.96 14.8135C76.1867 14.1068 75.8 13.0668 75.8 11.6935C75.8 10.4801 76.2467 9.47346 77.14 8.67346C78.0333 7.87346 79.24 7.42012 80.76 7.31346V5.53346H82.32V7.33346C85.3333 7.58679 86.9533 9.02679 87.18 11.6535H83.56C83.4267 10.8401 83.0133 10.3401 82.32 10.1535V12.9135C83.9867 13.1535 85.2467 13.6001 86.1 14.2535C86.9533 14.9068 87.38 15.9201 87.38 17.2935C87.38 18.5868 86.9533 19.6668 86.1 20.5335C85.2467 21.4001 83.9867 21.8868 82.32 21.9935V24.4935H80.76ZM83.66 17.7335C83.66 17.3868 83.5667 17.1268 83.38 16.9535C83.1933 16.7668 82.84 16.6135 82.32 16.4935V19.1535C83.2133 18.9668 83.66 18.4935 83.66 17.7335ZM79.4 11.3935C79.4 11.7535 79.4933 12.0335 79.68 12.2335C79.88 12.4201 80.24 12.5668 80.76 12.6735V10.1135C79.8533 10.2735 79.4 10.7001 79.4 11.3935Z" fill="#252B42"/>
</g>
<g clip-path="url(#clip4_67_6665)">
<path d="M76.44 45.7935V34.3535H79.688C80.872 34.3535 81.832 34.6308 82.568 35.1855C83.3147 35.7295 83.688 36.5668 83.688 37.6975V37.7615C83.688 38.9135 83.3147 39.7668 82.568 40.3215C81.832 40.8655 80.872 41.1375 79.688 41.1375H77.832V45.7935H76.44ZM77.832 40.0335H79.784C80.5947 40.0335 81.2133 39.8415 81.64 39.4575C82.0773 39.0628 82.296 38.4975 82.296 37.7615V37.6975C82.296 36.2148 81.4587 35.4735 79.784 35.4735H77.832V40.0335ZM88.9305 45.9375C87.7358 45.9375 86.7598 45.5535 86.0025 44.7855C85.2558 44.0068 84.8825 42.9775 84.8825 41.6975V41.5695C84.8825 40.3108 85.2452 39.2815 85.9705 38.4815C86.7065 37.6815 87.6505 37.2815 88.8025 37.2815C89.8692 37.2815 90.7598 37.6281 91.4745 38.3215C92.1998 39.0041 92.5625 40.0441 92.5625 41.4415V41.8735H86.2585C86.2905 42.8335 86.5305 43.5695 86.9785 44.0815C87.4372 44.5828 88.0932 44.8335 88.9465 44.8335C90.2585 44.8335 90.9998 44.3481 91.1705 43.3775H92.4985C92.3598 44.1988 91.9705 44.8335 91.3305 45.2815C90.6905 45.7188 89.8905 45.9375 88.9305 45.9375ZM86.3065 40.8015H91.2025C91.0852 39.1908 90.2852 38.3855 88.8025 38.3855C88.1305 38.3855 87.5758 38.6041 87.1385 39.0415C86.7012 39.4681 86.4238 40.0548 86.3065 40.8015ZM94.7003 45.7935V37.4255H96.0283V38.9295C96.3163 38.4068 96.6683 38.0068 97.0843 37.7295C97.5109 37.4521 98.0763 37.3028 98.7803 37.2815V38.5295C97.8629 38.5721 97.1749 38.7855 96.7163 39.1695C96.2576 39.5535 96.0283 40.2308 96.0283 41.2015V45.7935H94.7003ZM105.246 45.7935V34.3535H107.182L110.718 43.2655L114.142 34.3535H116.062V45.7935H114.67V36.1615L110.878 45.7935H110.446L106.526 36.1615V45.7935H105.246ZM122.441 44.8335C123.273 44.8335 123.935 44.5455 124.425 43.9695C124.927 43.3935 125.177 42.6308 125.177 41.6815V41.5695C125.177 40.5988 124.927 39.8255 124.425 39.2495C123.935 38.6735 123.273 38.3855 122.441 38.3855C121.599 38.3855 120.932 38.6735 120.441 39.2495C119.951 39.8255 119.705 40.5935 119.705 41.5535V41.6815C119.705 42.6415 119.951 43.4095 120.441 43.9855C120.932 44.5508 121.599 44.8335 122.441 44.8335ZM122.425 45.9375C121.241 45.9375 120.26 45.5375 119.481 44.7375C118.713 43.9268 118.329 42.9081 118.329 41.6815V41.5535C118.329 40.3055 118.713 39.2815 119.481 38.4815C120.26 37.6815 121.247 37.2815 122.441 37.2815C123.636 37.2815 124.617 37.6815 125.385 38.4815C126.164 39.2708 126.553 40.2895 126.553 41.5375V41.6655C126.553 42.9241 126.164 43.9535 125.385 44.7535C124.607 45.5428 123.62 45.9375 122.425 45.9375ZM128.71 45.7935V37.4255H130.038V38.7535C130.24 38.3268 130.576 37.9748 131.046 37.6975C131.515 37.4201 132.075 37.2815 132.726 37.2815C133.643 37.2815 134.363 37.5535 134.886 38.0975C135.408 38.6415 135.67 39.4948 135.67 40.6575V45.7935H134.342V40.5615C134.342 39.8255 134.182 39.2868 133.862 38.9455C133.542 38.6041 133.046 38.4335 132.374 38.4335C131.723 38.4335 131.168 38.6361 130.71 39.0415C130.262 39.4468 130.038 40.0068 130.038 40.7215V45.7935H128.71ZM140.916 45.9055C140.18 45.9055 139.62 45.7081 139.236 45.3135C138.852 44.9188 138.66 44.3801 138.66 43.6975V38.5455H137.46V37.4255H138.66V35.5215H139.988V37.4255H141.94V38.5455H139.988V43.5695C139.988 44.3801 140.335 44.7855 141.028 44.7855C141.412 44.7855 141.753 44.7268 142.052 44.6095V45.7295C141.721 45.8468 141.343 45.9055 140.916 45.9055ZM144.16 45.7935V33.4255H145.488V38.7535C145.69 38.3268 146.026 37.9748 146.496 37.6975C146.965 37.4201 147.525 37.2815 148.176 37.2815C149.093 37.2815 149.813 37.5535 150.336 38.0975C150.858 38.6415 151.12 39.4948 151.12 40.6575V45.7935H149.792V40.5615C149.792 39.8255 149.632 39.2868 149.312 38.9455C148.992 38.6041 148.496 38.4335 147.824 38.4335C147.173 38.4335 146.618 38.6361 146.16 39.0415C145.712 39.4468 145.488 40.0068 145.488 40.7215V45.7935H144.16Z" fill="#374754"/>
</g>
</g>
</g>
<defs>
<clipPath id="clip0_67_6665">
<rect width="153" height="61" fill="white" transform="translate(0 0.793457)"/>
</clipPath>
<clipPath id="clip1_67_6665">
<rect width="75" height="104" fill="white" transform="translate(0 -20.7065)"/>
</clipPath>
<clipPath id="clip2_67_6665">
<rect width="78" height="51" fill="white" transform="translate(75 0.793457)"/>
</clipPath>
<clipPath id="clip3_67_6665">
<rect width="13" height="28" fill="white" transform="translate(75 0.793457)"/>
</clipPath>
<clipPath id="clip4_67_6665">
<rect width="78" height="23" fill="white" transform="translate(75 28.7935)"/>
</clipPath>
</defs>
</svg>
